<?xml version="1.0" encoding="utf-8"?>
<!-- Generator: Adobe Illustrator 24.0.1, SVG Export Plug-In . SVG Version: 6.00 Build 0)  -->
<svg version="1.1" id="Layer_1" xmlns="http://www.w3.org/2000/svg" xmlns:xlink="http://www.w3.org/1999/xlink" x="0px" y="0px"
	 width="229px" height="47px" viewBox="0 0 229 47" style="enable-background:new 0 0 229 47;" xml:space="preserve">
<style type="text/css">
	.st0{fill:#28374C;}
	.st1{fill:#FFFFFF;}
	.st2{fill:#F3F047;}
	.st3{fill:#00BF70;}
	.st4{fill:#FF826B;}
	.st5{fill:#A762B4;}
	.st6{fill:#01AFD3;}
	.st7{fill:#6A7DD1;}
	.st8{fill:#FFFFFF;stroke:#FFFFFF;stroke-width:0.5;}
</style>
<path class="st0" d="M8.5,0.5h213c4.4,0,8,3.6,8,8v31c0,4.4-3.6,8-8,8H8.5c-4.4,0-8-3.6-8-8v-31C0.5,4.1,4.1,0.5,8.5,0.5z"/>
<path class="st1" d="M14.1,29h3.1c1.7,0,2.8-0.9,2.8-2.5c0-1-0.4-1.7-1.3-2.1c0.5-0.3,0.8-0.9,0.8-1.5c0-1.5-0.9-2.3-2.4-2.3H14V29
	H14.1z M17,22c0.7,0,1,0.3,1,0.9s-0.3,0.9-1,0.9h-1.4V22H17z M17.1,25.3c0.9,0,1.4,0.4,1.4,1.1c0,0.8-0.5,1.1-1.4,1.1h-1.4v-2.3
	L17.1,25.3L17.1,25.3z M28,20.6v5.2c0,1.2-0.5,1.8-1.6,1.8c-1,0-1.6-0.6-1.6-1.8v-5.2h-1.6v5.2c0,2.2,1.2,3.3,3.1,3.3
	s3.1-1.1,3.1-3.3v-5.2C29.4,20.6,28,20.6,28,20.6z M33,20.6V29h1.6v-8.4H33z M38.3,29h5.1v-1.4h-3.6v-7h-1.6L38.3,29L38.3,29z
	 M47.2,22v7h1.6v-7h2.3v-1.4h-6.2V22H47.2z M60.7,21c-1.2,0.6-2,2-2,3.8c0,0.9,0.2,1.7,0.6,2.4c0.8,1.3,2,1.9,3.4,1.9
	c0.7,0,1.4-0.1,2-0.4c1.2-0.6,2-2,2-3.9c0-0.9-0.2-1.7-0.6-2.4c-0.7-1.3-1.9-1.9-3.4-1.9C62,20.5,61.3,20.7,60.7,21z M64.4,22.7
	c0.5,0.5,0.7,1.2,0.7,2.1s-0.2,1.7-0.7,2.1c-0.4,0.5-1,0.7-1.7,0.7s-1.2-0.2-1.7-0.7c-0.4-0.5-0.7-1.2-0.7-2.1s0.2-1.7,0.7-2.1
	c0.5-0.5,1-0.7,1.7-0.7C63.4,21.9,64,22.2,64.4,22.7z M74.8,26.1l-3.1-5.5h-1.6V29h1.6v-5.5l3.1,5.5h1.6v-8.4h-1.6V26.1z"/>
<path class="st2" d="M97,7L87,23.3l10-4.5V7z"/>
<path class="st3" d="M97,18.8l-10,4.5l10,5.8V18.8z"/>
<path class="st4" d="M107,23.3L97,7v11.8L107,23.3z"/>
<path class="st5" d="M97,29.1l10-5.8l-10-4.5V29.1z"/>
<path class="st6" d="M87,25.2L97,39v-8L87,25.2z"/>
<path class="st7" d="M97,31v8l10-13.8L97,31z"/>
<path class="st8" d="M123.9,25.2c0,0.2-0.2,0.4-0.4,0.4h-7.7c0.2,1.8,1.6,3.6,3.6,3.6c1.4,0,2.4-0.5,3.2-1.6
	c0.1-0.1,0.2-0.2,0.3-0.2c0.2,0,0.4,0.2,0.4,0.4c0,0.1,0,0.1-0.1,0.2c-0.8,1.3-2.3,2-3.8,2c-2.6,0-4.4-2.3-4.4-4.8s1.8-4.7,4.4-4.7
	C122.1,20.5,123.9,22.8,123.9,25.2z M123.1,24.8c-0.2-1.9-1.6-3.6-3.6-3.6s-3.5,1.7-3.6,3.6H123.1z"/>
<path class="st8" d="M133.3,20.6c0.2,0,0.4,0.2,0.4,0.4c0,0.2-0.2,0.4-0.4,0.4h-2.1v8.1c0,0.2-0.2,0.4-0.4,0.4s-0.4-0.2-0.4-0.4
	v-8.1h-2c-0.2,0-0.4-0.2-0.4-0.4c0-0.2,0.2-0.4,0.4-0.4h2v-2.9c0-0.2,0.2-0.4,0.4-0.4s0.4,0.2,0.4,0.4v2.9H133.3z"/>
<path class="st8" d="M145.9,24.5v4.9c0,0.2-0.1,0.4-0.3,0.4s-0.3-0.2-0.3-0.4v-4.9c0-1.6-1-3.3-2.8-3.3c-2.4,0-3.4,2.1-3.3,4.2
	c0,0.1,0,0.3,0,0.3v3.7c0,0.2-0.1,0.4-0.3,0.4s-0.3-0.2-0.3-0.4v-16c0-0.2,0.1-0.4,0.3-0.4s0.3,0.2,0.3,0.4v9c0.8-1.2,1.8-2,3.2-2
	C144.6,20.5,145.9,22.4,145.9,24.5z"/>
<path class="st8" d="M159.8,25.2c0,0.2-0.2,0.4-0.4,0.4h-7.7c0.2,1.8,1.6,3.6,3.6,3.6c1.4,0,2.4-0.5,3.2-1.6
	c0.1-0.1,0.2-0.2,0.3-0.2c0.2,0,0.4,0.2,0.4,0.4c0,0.1,0,0.1-0.1,0.2c-0.8,1.3-2.3,2-3.8,2c-2.6,0-4.5-2.3-4.5-4.8s1.8-4.7,4.5-4.7
	C157.9,20.5,159.8,22.8,159.8,25.2z M159,24.8c-0.2-1.9-1.6-3.6-3.6-3.6s-3.5,1.7-3.6,3.6H159z"/>
<path class="st8" d="M169.3,21c0,0.2-0.1,0.4-0.4,0.4c-2.3,0.3-3.3,2.2-3.3,4.3v3.7c0,0.2-0.2,0.4-0.4,0.4s-0.4-0.2-0.4-0.4V21
	c0-0.2,0.2-0.4,0.4-0.4s0.4,0.2,0.4,0.4v1.7c0.7-1.1,1.9-2.1,3.2-2.1C169.1,20.6,169.3,20.8,169.3,21z"/>
<path class="st8" d="M182,25.2c0,0.2-0.2,0.4-0.4,0.4h-7.7c0.2,1.8,1.6,3.6,3.6,3.6c1.4,0,2.4-0.5,3.2-1.6c0.1-0.1,0.2-0.2,0.3-0.2
	c0.2,0,0.4,0.2,0.4,0.4c0,0.1,0,0.1-0.1,0.2c-0.8,1.3-2.3,2-3.8,2c-2.6,0-4.5-2.3-4.5-4.8s1.8-4.7,4.5-4.7
	C180.1,20.4,182,22.8,182,25.2z M181.2,24.8c-0.2-1.9-1.6-3.6-3.6-3.6s-3.5,1.7-3.6,3.6H181.2z"/>
<path class="st8" d="M194.5,21.1v2.7v5.7c0,0.2-0.2,0.4-0.4,0.4s-0.4-0.2-0.4-0.4v-1.6c-0.7,1.3-1.8,2.2-3.2,2.2c-2.3,0-3.6-2-3.6-4
	v-4.9c0-0.2,0.2-0.4,0.4-0.4s0.4,0.2,0.4,0.4V26c0,1.6,0.9,3.3,2.8,3.3c2.6,0,3.2-2.4,3.2-5.1v-3.1c0-0.2,0.2-0.4,0.4-0.4
	C194.3,20.7,194.5,20.9,194.5,21.1z"/>
<path class="st8" d="M214,24.5v4.9c0,0.2-0.2,0.4-0.4,0.4s-0.4-0.2-0.4-0.4v-4.9c0-1.6-0.9-3.2-2.8-3.2c-2.3,0-3.2,2.5-3.2,4.4v3.8
	c0,0.2-0.2,0.4-0.4,0.4s-0.4-0.2-0.4-0.4v-4.9c0-1.6-0.9-3.2-2.8-3.2c-2.3,0-3.3,1.8-3.2,4.3v0.2v3.7c0,0.2-0.2,0.4-0.4,0.4
	s-0.4-0.2-0.4-0.4V21c0-0.2,0.2-0.4,0.4-0.4s0.4,0.2,0.4,0.4v1.4c0.7-1.2,1.9-1.9,3.3-1.9c1.6,0,2.8,1,3.3,2.4
	c0.6-1.4,1.9-2.4,3.5-2.4C212.7,20.5,214,22.4,214,24.5z"/>
</svg>
