<?xml version="1.0" encoding="utf-8"?>
<!-- Generator: Adobe Illustrator 24.0.1, SVG Export Plug-In . SVG Version: 6.00 Build 0)  -->
<svg version="1.1" id="Layer_1" xmlns="http://www.w3.org/2000/svg" xmlns:xlink="http://www.w3.org/1999/xlink" x="0px" y="0px"
	 width="114px" height="47px" viewBox="0 0 114 47" style="enable-background:new 0 0 114 47;" xml:space="preserve">
<style type="text/css">
	.st0{fill:#28374C;}
	.st1{fill:#8891B1;}
	.st2{fill:#63688E;}
	.st3{fill:#464A75;}
	.st4{fill:#FFFFFF;}
</style>
<path class="st0" d="M8,0h98c4.4,0,8,3.6,8,8v31c0,4.4-3.6,8-8,8H8c-4.4,0-8-3.6-8-8V8C0,3.6,3.6,0,8,0z"/>
<path class="st1" d="M18.5,8L9,23.8l9.5-4.3V8z"/>
<path class="st2" d="M18.5,19.5L9,23.8l9.5,5.6V19.5z"/>
<path class="st2" d="M28,23.8L18.5,8v11.5L28,23.8z"/>
<path class="st3" d="M18.5,29.4l9.5-5.6l-9.5-4.3V29.4z"/>
<path class="st1" d="M9,25.6L18.5,39v-7.8L9,25.6z"/>
<path class="st2" d="M18.5,31.2V39L28,25.6L18.5,31.2z"/>
<g>
	<path class="st4" d="M36.5,10.2c0.8-0.1,1.8-0.2,2.9-0.2c1.8,0,3,0.3,3.9,1c1,0.7,1.6,1.9,1.6,3.6c0,1.8-0.7,3.1-1.6,3.8
		c-1,0.8-2.5,1.2-4.4,1.2c-1.1,0-1.9-0.1-2.4-0.1V10.2z M38.7,18c0.2,0,0.5,0,0.7,0c1.9,0,3.2-1.1,3.2-3.3c0-2-1.1-3-3-3
		c-0.5,0-0.8,0-1,0.1V18z"/>
	<path class="st4" d="M47.9,16.8c0.1,0.9,0.9,1.3,1.9,1.3c0.7,0,1.3-0.1,1.9-0.3l0.3,1.4c-0.7,0.3-1.6,0.4-2.5,0.4
		c-2.3,0-3.7-1.4-3.7-3.5c0-1.7,1.1-3.7,3.5-3.7c2.2,0,3.1,1.7,3.1,3.4c0,0.4,0,0.7-0.1,0.8H47.9z M50.4,15.4c0-0.5-0.2-1.4-1.2-1.4
		c-0.9,0-1.3,0.8-1.3,1.4H50.4z"/>
	<path class="st4" d="M53.7,10.1h5.8v1.8h-3.6V14h3.4v1.7h-3.4v3.8h-2.1V10.1z"/>
	<path class="st4" d="M62.9,10.8c0,0.6-0.4,1.1-1.2,1.1c-0.7,0-1.1-0.5-1.1-1.1c0-0.6,0.4-1.1,1.1-1.1C62.5,9.7,62.9,10.2,62.9,10.8
		z M60.7,19.6v-6.9h2.1v6.9H60.7z"/>
	<path class="st4" d="M69,12.7l0.9,3.2c0.2,0.6,0.3,1.1,0.4,1.7h0c0.1-0.6,0.2-1.1,0.4-1.7l0.9-3.2h2.2l-2.6,6.9h-2.1l-2.5-6.9H69z"
		/>
	<path class="st4" d="M74.9,17.5c0.4,0.2,1.2,0.6,2.1,0.6c1.1,0,1.7-0.5,1.7-1.2c0-0.9-0.9-1.3-1.8-1.3H76V14h0.8
		c0.7,0,1.6-0.3,1.6-1.1c0-0.5-0.4-1-1.3-1c-0.7,0-1.5,0.3-1.9,0.5L74.8,11c0.5-0.4,1.6-0.7,2.8-0.7c1.9,0,3,1,3,2.3
		c0,1-0.5,1.7-1.7,2.1v0c1.1,0.2,2,1,2,2.2c0,1.6-1.4,2.8-3.7,2.8c-1.2,0-2.2-0.3-2.7-0.6L74.9,17.5z"/>
</g>
<g>
	<path class="st4" d="M36.5,28H38v3h0c0.1-0.3,0.3-0.5,0.5-0.7L40,28h1.9l-2.2,2.8l2.3,3.8h-1.8l-1.6-2.9L38,32.5v2.2h-1.5V28z"/>
	<path class="st4" d="M43.6,32.8c0,0.6,0.7,0.9,1.4,0.9c0.5,0,0.9-0.1,1.3-0.2l0.2,1c-0.5,0.2-1.1,0.3-1.8,0.3c-1.6,0-2.6-1-2.6-2.5
		c0-1.2,0.8-2.6,2.4-2.6c1.6,0,2.2,1.2,2.2,2.4c0,0.3,0,0.5,0,0.6H43.6z M45.3,31.7c0-0.4-0.2-1-0.9-1c-0.6,0-0.9,0.6-0.9,1H45.3z"
		/>
	<path class="st4" d="M48.8,32.8c0,0.6,0.7,0.9,1.4,0.9c0.5,0,0.9-0.1,1.3-0.2l0.2,1c-0.5,0.2-1.1,0.3-1.8,0.3c-1.6,0-2.6-1-2.6-2.5
		c0-1.2,0.8-2.6,2.4-2.6c1.6,0,2.2,1.2,2.2,2.4c0,0.3,0,0.5,0,0.6H48.8z M50.6,31.7c0-0.4-0.2-1-0.9-1c-0.6,0-0.9,0.6-0.9,1H50.6z"
		/>
	<path class="st4" d="M52.9,31.5c0-0.6,0-1.2,0-1.6h1.3l0.1,0.7h0c0.4-0.5,0.9-0.8,1.6-0.8c1.1,0,2,0.9,2,2.5c0,1.8-1.1,2.6-2.2,2.6
		c-0.6,0-1-0.2-1.3-0.6h0v2.4h-1.5V31.5z M54.4,32.6c0,0.1,0,0.2,0,0.3c0.1,0.4,0.4,0.7,0.9,0.7c0.7,0,1-0.5,1-1.4
		c0-0.8-0.3-1.4-1-1.4c-0.4,0-0.8,0.3-0.9,0.8c0,0.1,0,0.2,0,0.3V32.6z"/>
	<path class="st4" d="M60,32.8c0,0.6,0.7,0.9,1.4,0.9c0.5,0,0.9-0.1,1.3-0.2l0.2,1c-0.5,0.2-1.1,0.3-1.8,0.3c-1.6,0-2.6-1-2.6-2.5
		c0-1.2,0.8-2.6,2.4-2.6c1.6,0,2.2,1.2,2.2,2.4c0,0.3,0,0.5,0,0.6H60z M61.8,31.7c0-0.4-0.2-1-0.9-1c-0.6,0-0.9,0.6-0.9,1H61.8z"/>
	<path class="st4" d="M64.1,31.5c0-0.7,0-1.2,0-1.6h1.3l0,0.9h0c0.2-0.7,0.8-1,1.3-1c0.1,0,0.2,0,0.3,0v1.4c-0.1,0-0.2-0.1-0.4-0.1
		c-0.6,0-0.9,0.3-1,0.8c0,0.1,0,0.2,0,0.3v2.5h-1.5V31.5z"/>
	<path class="st4" d="M69.9,34.7V28h1.8l1.4,2.4c0.4,0.7,0.8,1.5,1.1,2.3h0C74,31.9,74,31,74,30V28h1.4v6.7h-1.6l-1.4-2.6
		c-0.4-0.7-0.8-1.6-1.2-2.4l0,0c0,0.9,0.1,1.8,0.1,2.9v2H69.9z"/>
	<path class="st4" d="M77.8,32.8c0,0.6,0.7,0.9,1.4,0.9c0.5,0,0.9-0.1,1.3-0.2l0.2,1c-0.5,0.2-1.1,0.3-1.8,0.3c-1.6,0-2.6-1-2.6-2.5
		c0-1.2,0.8-2.6,2.4-2.6c1.6,0,2.2,1.2,2.2,2.4c0,0.3,0,0.5,0,0.6H77.8z M79.6,31.7c0-0.4-0.2-1-0.9-1c-0.6,0-0.9,0.6-0.9,1H79.6z"
		/>
	<path class="st4" d="M83.5,28.6v1.3h1.1V31h-1.1v1.8c0,0.6,0.1,0.9,0.6,0.9c0.2,0,0.3,0,0.4,0l0,1.1c-0.2,0.1-0.6,0.1-1,0.1
		c-0.5,0-0.9-0.2-1.1-0.4c-0.3-0.3-0.4-0.8-0.4-1.4v-2h-0.6v-1.1h0.6V29L83.5,28.6z"/>
	<path class="st4" d="M86.6,29.9l0.4,2c0.1,0.5,0.2,1,0.3,1.6h0c0.1-0.6,0.2-1.1,0.4-1.6l0.5-2h1.2l0.5,1.9c0.1,0.5,0.3,1.1,0.4,1.6
		h0c0.1-0.6,0.2-1.1,0.3-1.7l0.4-1.9h1.5l-1.5,4.8h-1.4L89,33c-0.1-0.5-0.2-0.9-0.3-1.5h0c-0.1,0.6-0.2,1.1-0.3,1.5l-0.5,1.7h-1.4
		l-1.4-4.8H86.6z"/>
	<path class="st4" d="M97.7,32.2c0,1.8-1.3,2.6-2.6,2.6c-1.4,0-2.5-0.9-2.5-2.5c0-1.6,1-2.6,2.6-2.6C96.7,29.8,97.7,30.8,97.7,32.2z
		 M94.2,32.3c0,0.8,0.3,1.5,1,1.5c0.6,0,1-0.6,1-1.5c0-0.7-0.3-1.5-1-1.5C94.5,30.8,94.2,31.6,94.2,32.3z"/>
	<path class="st4" d="M98.6,31.5c0-0.7,0-1.2,0-1.6h1.3l0,0.9h0c0.2-0.7,0.8-1,1.3-1c0.1,0,0.2,0,0.3,0v1.4c-0.1,0-0.2-0.1-0.4-0.1
		c-0.6,0-0.9,0.3-1,0.8c0,0.1,0,0.2,0,0.3v2.5h-1.5V31.5z"/>
	<path class="st4" d="M103.9,31.9L103.9,31.9c0.1-0.2,0.2-0.4,0.4-0.6l1-1.5h1.8l-1.7,2l2,2.9h-1.9l-1.2-2l-0.4,0.5v1.5h-1.5v-7h1.5
		V31.9z"/>
</g>
</svg>
