<?xml version="1.0" encoding="utf-8"?>
<!-- Generator: Adobe Illustrator 24.0.1, SVG Export Plug-In . SVG Version: 6.00 Build 0)  -->
<svg version="1.1" id="Layer_1" xmlns="http://www.w3.org/2000/svg" xmlns:xlink="http://www.w3.org/1999/xlink" x="0px" y="0px"
	 width="2400px" height="2400px" viewBox="0 0 2400 2400" style="enable-background:new 0 0 2400 2400;" xml:space="preserve">
<style type="text/css">
	.st0{fill:url(#SVGID_1_);}
	.st1{fill:#FFFFFF;}
</style>
<linearGradient id="SVGID_1_" gradientUnits="userSpaceOnUse" x1="599.8998" y1="162.596" x2="1800.1002" y2="2241.4041" gradientTransform="matrix(1 0 0 -1 0 2402)">
	<stop  offset="0" style="stop-color:#CE2B6C"/>
	<stop  offset="1" style="stop-color:#FF2D82"/>
</linearGradient>
<circle class="st0" cx="1200" cy="1200" r="1200"/>
<g id="layer101">
	<path class="st1" d="M833.6,1948.5c-2.6-0.8-17.3-3-31.5-5.3c-67.9-11.3-110.6-54.4-124.1-124.9c-6.4-33-7.5-565.5-1.1-605.6
		c7.5-46.1,34.5-86.6,76.5-113.3c24.8-15.8,44.3-39.4,50.2-60.8c3.8-13.5,5.6-47.6,7.1-128.3c1.9-109.5,2.6-123,9.4-162.4
		c8.3-46.9,41.3-120.8,69-155.2c57-70.5,142.1-120,237.4-137.6c73.5-13.9,181.1,0.4,250.5,32.6c105.4,49.1,178.5,141.8,205.5,259.9
		c4.1,19.1,6,51,7.1,144.7c1.5,125.6,4.1,151.5,16.9,169.1c9,12.8,27,28.9,42.8,38.6c38.3,23.6,67.1,67.9,73.9,113.3
		c2.6,15.8,3.8,120.4,3.8,299.6c0,301.9-0.4,309-20.6,350.6c-13.1,28.1-37.9,52.9-65.3,65.6c-42.8,19.9-48.4,20.3-442.9,19.9
		C1000.9,1949.6,836.6,1948.9,833.6,1948.5z M1536,1792.5c17.6-10.5,28.1-22.1,37.1-41.3c5.3-10.9,6-35.6,7.1-228.8
		c0.8-138.4-0.4-222-2.6-232.9c-7.1-33.4-27.7-54.8-63.8-64.1c-24.4-6.8-598.5-7.5-627.7-0.8c-29.3,6.8-47.3,20.6-60,48
		c-7.5,15.4-7.5,18.8-7.5,240.8v225l10.5,18.8c12.8,22.9,33,37.9,56.3,42.4c9.4,1.5,156,2.6,325.9,2.6l309-0.8L1536,1792.5z
		 M1395.4,1068c30-15.8,35.3-27.4,39.4-86.3c5.3-70.9,1.9-147-8.6-187.1c-10.5-40.1-18-56.3-42.8-88.9
		c-52.9-70.9-133.1-107.3-211.9-96.4c-69.8,10.1-145.9,67.1-179.6,135c-21,42-23.6,62.3-23.6,174.4c0,99,0.4,101.6,7.9,117.8
		c4.5,9.4,13.1,20.3,19.1,24.4c22.1,15.8,32.3,16.5,213.8,15.8C1380,1076.3,1380,1076.3,1395.4,1068z"/>
	<path class="st1" d="M1165.9,1668c-37.5-12.8-60.4-45-63-87.8c-1.5-24.8-0.8-27.8,13.1-59.3c17.3-38.6,21-49.1,22.9-67.9
		c7.9-66.8,18.4-87.4,48.8-95.6c22.5-6.4,50.3,7.5,59.3,29.3c2.6,6,7.5,29.6,11.6,52.9c6.8,38.6,10.9,52.9,29.3,92.3
		c9.8,21.8,11.6,50.3,4.1,75.4c-4.5,16.5-9.4,24-24,37.9C1239,1673.3,1203.8,1680.8,1165.9,1668z"/>
</g>
</svg>
