<?xml version="1.0" encoding="utf-8"?>
<!-- Generator: Adobe Illustrator 24.0.1, SVG Export Plug-In . SVG Version: 6.00 Build 0)  -->
<svg version="1.1" id="Layer_1" xmlns="http://www.w3.org/2000/svg" xmlns:xlink="http://www.w3.org/1999/xlink" x="0px" y="0px"
	 width="1000px" height="1000px" viewBox="0 0 1000 1000" style="enable-background:new 0 0 1000 1000;" xml:space="preserve">
<style type="text/css">
	.st0{fill:#EAB408;}
	.st1{fill:#FFFFFF;}
</style>
<circle class="st0" cx="500" cy="500" r="500"/>
<g id="layer101">
	<path class="st1" d="M316.1,824.4c-9.7-1.3-22.8-6.8-31.5-13.2c-5.1-3.8-13.4-12.9-15.2-16.8c-0.5-1.1-2.1-4.4-3.6-7.4
		c-5.5-11.5-5.2-4.7-4.9-148c0.3-128.4,0.3-130,2-135.1c3.4-10.1,7.9-17.3,15.5-24.9c4-4,9.4-8.5,12-10.1c9.8-5.7,21.7-9.3,30.9-9.4
		h4.4L326,390c0.3-66.4,0.4-70.1,2.1-78.9c12.5-65.7,62-115.7,130.5-131.9c14.7-3.6,22.8-4.3,42.7-4.2c20.3,0,27.5,0.9,45.7,5.5
		c30.9,7.8,61.3,25.6,83.3,48.6c20,20.9,34.6,48.4,40.5,75.8c3.1,14.9,3.5,22.5,3.5,89.5v65.1h4.9c9.9,0,24.5,5.1,34.5,11.8
		c12.6,8.7,22.4,23.7,24.9,38.2c0.6,3.8,0.8,44.8,0.7,136.1l-0.2,130.8l-1.9,4.8c-3.9,10.2-8.2,17.1-15.1,24
		c-7.1,7.2-13.3,11.3-22.8,15.1c-12.2,4.9-2.4,4.7-199.4,4.6C400.3,824.8,317.5,824.6,316.1,824.4z M683,783.6
		c5.8-2.2,8.5-4.5,11.3-9.6l2.3-4.1l-0.1-127.8V514.2l-2-3.8c-2.3-4.4-7.6-8.9-12.3-10.2c-2.1-0.6-61.7-0.8-183-0.8H319.4l-4.4,2.2
		c-4.7,2.4-8.6,6.7-10.2,11.3c-0.8,2.1-1,36-1,129.9c0,121.6,0.1,127.2,1.6,130.5c0.8,1.9,3.1,4.7,5.1,6.4
		c7.2,6.1-8.3,5.7,189.8,5.7C677.4,785.3,678.6,785.3,683,783.6z M631.3,392.6c0-43.9-0.3-69-0.9-72.9c-2.6-17.5-9.4-34.6-19.6-49.7
		c-6-8.8-23.9-26.4-32.7-32.3c-27.4-18.1-60.7-26.3-92.6-22.7c-32.4,3.7-59.1,16.2-80.9,38.1c-17,16.9-27.3,35.3-33.1,58.9
		c-1.8,7.4-1.9,9.1-2.1,77.6l-0.3,70h131h131.1v-67H631.3z"/>
	<path class="st1" d="M544.6,661.9c0,24.5-19.9,44.4-44.4,44.4s-44.4-19.9-44.4-44.4c0-16.8,9.4-31.5,23.2-39v-19.2
		c0-28.1,0.3-29.7,6.1-35.6c8.4-8.5,21.7-8.6,30.2-0.2c5.8,5.8,6,6.8,6,34.7v20.2C535.2,630.3,544.6,645,544.6,661.9z"/>
</g>
</svg>
