<?xml version="1.0" encoding="utf-8"?>
<svg version="1.1" id="Layer_1" xmlns="http://www.w3.org/2000/svg" xmlns:xlink="http://www.w3.org/1999/xlink" x="0px" y="0px"
	 width="2000px" height="2000px" viewBox="0 0 2000 2000" style="enable-background:new 0 0 2000 2000;" xml:space="preserve">
<style type="text/css">
	.st0{fill:url(#SVGID_1_);}
	.st1{fill:#FFFFFF;}
</style>
<linearGradient id="SVGID_1_" gradientUnits="userSpaceOnUse" x1="0" y1="1000" x2="2000" y2="1000">
	<stop  offset="8.250825e-03" style="stop-color:#2F80ED"/>
	<stop  offset="1" style="stop-color:#1C71E4"/>
</linearGradient>
<circle class="st0" cx="1000" cy="1000" r="1000"/>
<g>
	<path class="st1" d="M1000,250c-206.3,0-374.2,167.9-374.2,374.2v99.9c0,22.2,15.8,38.9,36.7,38.9c5.6,0,11.3-1.2,16.9-3.6
		c40.6-17.1,83.9-31.1,128.6-41.6c23.1-5.4,40.4-27.2,40.4-50.6v-43.1c0-83.6,68-151.6,151.6-151.6s151.6,68,151.6,151.6v43.1
		c0,23.5,17.4,45.2,40.4,50.6c44.6,10.4,87.9,24.4,128.5,41.6c5.6,2.4,11.3,3.6,16.9,3.6c20.9,0,36.7-16.7,36.7-38.9v-99.9
		C1374.2,417.9,1206.4,250,1000,250z"/>
	<path class="st1" d="M603.6,845c-16.6,9.2-32.3,29.1-37.5,47.3c-18.6,65.8-28,134.4-28,203.8c0,148.6,42.2,289.6,122.1,407.8
		c77.4,114.5,187.7,200.3,310.5,241.9c10.4,3.5,21.6,4.3,29.2,4.3s18.8-0.7,29.2-4.3c122.8-41.5,233.1-127.4,310.5-241.9
		c79.9-118.1,122.1-259.1,122.1-407.8c0-69.3-9.4-137.8-28-203.8c-5.1-18.2-20.9-38.1-37.5-47.3c-121-67.1-258-102.6-396.4-102.6
		C861.6,742.4,724.5,777.9,603.6,845z M1058.7,1205.8l25.2,151.4c2.1,12.4-6.4,22.4-18.9,22.4H935c-12.5,0-21-10-18.9-22.4
		l25.2-151.4c2.1-12.3-4.4-28.7-11.9-38.7c-10.6-14.1-17.1-31.4-17.1-50.4c0-48.4,39.2-87.6,87.6-87.6c48.4,0,87.6,39.2,87.6,87.6
		c0,19.1-6.5,36.3-17,50.4C1063.1,1177.1,1056.6,1193.4,1058.7,1205.8z"/>
</g>
</svg>
