<svg width="1343" height="353" viewBox="0 0 1343 353" fill="none" xmlns="http://www.w3.org/2000/svg">
<g clip-path="url(#clip0)">
<path d="M641.3 65.5C640.2 65.5 639.2 65.5 638.2 65.5C614.5 65.5 590.7 65.5 567 65.4C561.4 65.4 557.1 61 557 55.3C556.9 40.3 557 25.3 557 10.4C557 4.8 561.2 0.4 566.8 0C567.4 0 568 0 568.5 0C613.6 0 658.8 0 703.9 0C707.8 0 711.2 1.1 713.4 4.4C714.4 6 714.8 8 715.4 9.9C715.6 10.4 715.4 11.1 715.4 11.6C715.4 121.4 715.4 231.1 715.4 340.9C715.4 346.9 712.4 351.1 707.2 352.2C706.2 352.4 705.1 352.4 704 352.4C658.8 352.4 613.5 352.4 568.3 352.4C561.1 352.4 556.9 348.2 556.9 341.1C556.9 326.8 556.9 312.5 556.9 298.2C556.9 291.2 561 287 568 287C591.3 287 614.6 287 638 287C639 287 640 287 641.2 287C641.3 213.2 641.3 139.5 641.3 65.5Z" fill="#2A2A2A"/>
<path d="M334.6 65.5C334.6 139.5 334.6 213.1 334.6 287C335.7 287 336.7 287 337.7 287C360.8 287 383.8 287.2 406.9 286.9C415.3 286.8 419.4 292.5 419.2 299.2C419 313.1 419.2 327 419.1 340.9C419.1 346.9 416 351.1 410.9 352.2C409.9 352.4 408.8 352.5 407.7 352.5C362.5 352.5 317.2 352.5 272 352.5C264.7 352.5 260.5 348.4 260.5 341.1C260.5 231.3 260.5 121.4 260.5 11.6C260.5 4.2 264.7 0 272 0C317.2 0 362.5 0 407.7 0C414.8 0 419.1 4.2 419.2 11.3C419.3 25.7 419.2 40.1 419.2 54.5C419.2 61.3 413.7 65.6 408.5 65.5C384.9 65.3 361.4 65.5 337.8 65.5C336.7 65.5 335.7 65.5 334.6 65.5Z" fill="#2A2A2A"/>
<path d="M536.7 183.7C536.7 198.2 536.7 212.1 536.7 226.1C536.7 230.8 535.3 232.1 530.6 232.1C521.3 232.1 511.9 232.1 502.6 232.1C498.8 232.1 497.1 230.4 497.1 226.6C497.1 192.1 497.1 157.5 497.1 123C497.1 119 498.7 117.4 502.7 117.4C510.9 117.4 519 117.4 527.2 117.4C530.6 117.4 533.2 118.6 535.3 121.5C546.3 136.7 557.3 151.8 568.3 166.9C568.8 167.6 569.3 168.2 570.2 169.4C570.3 168 570.3 167.1 570.3 166.3C570.3 152.2 570.3 138 570.3 123.9C570.3 118.9 571.7 117.5 576.7 117.5C585.7 117.5 594.7 117.5 603.7 117.5C608.5 117.5 610.1 119.1 610.1 124C610.1 157.9 610.1 191.9 610.1 225.8C610.1 230.7 608.6 232.2 603.7 232.2C595.9 232.2 588 232.1 580.2 232.2C576.6 232.3 574 230.9 571.9 228.1C560.6 213.7 549.3 199.3 538 185C537.7 184.6 537.4 184.4 536.7 183.7Z" fill="#2A2A2A"/>
<path d="M397.5 151.2C387.9 151.2 378.6 151.2 369.3 151.2C364.7 151.2 363.2 149.7 363.2 145C363.2 137.7 363.2 130.4 363.2 123C363.2 119 364.9 117.3 368.8 117.3C402.9 117.3 436.9 117.3 471 117.3C474.8 117.3 476.4 119 476.5 122.8C476.5 130.4 476.5 137.9 476.5 145.5C476.5 149.5 474.8 151.1 470.8 151.1C462.3 151.1 453.8 151.1 445.3 151.1C444.4 151.1 443.5 151.1 442.4 151.1C442.4 166.9 442.4 182.5 442.4 198.2C451.1 198.2 459.8 198.2 468.5 198.2C469.7 198.2 470.8 198.3 472 198.4C475 198.7 476.4 200 476.5 202.9C476.6 211 476.6 219 476.5 227.1C476.5 230.4 474.6 231.9 470.9 231.9C444.8 231.9 418.6 231.9 392.5 231.9C384.7 231.9 376.8 231.9 369 231.9C365.1 231.9 363.4 230.2 363.4 226.3C363.4 218.8 363.4 211.3 363.4 203.8C363.4 199.7 365.1 198.1 369.2 198.1C377.8 198.1 386.4 198.1 394.9 198.1C395.8 198.1 396.7 198.1 397.7 198.1C397.5 182.5 397.5 167 397.5 151.2Z" fill="#2A2A2A"/>
<path d="M16.8 68.8C16.8 90.6 16.8 112 16.8 133.7C17.7 133.2 18.4 132.8 19 132.4C42.1 116.3 90 122.1 99.1 166.5C102.2 181.4 101.1 196.1 93.6 209.6C85.5 224.2 72.5 232.4 56.4 235.6C37 239.4 18.9 235.3 1.70002 226.2C2.44379e-05 225.3 2.44156e-05 224.1 2.44156e-05 222.6C2.44156e-05 201.9 2.44156e-05 181.2 2.44156e-05 160.4C2.44156e-05 132.8 2.44156e-05 105.1 -0.0999756 77.5C-0.0999756 75.3 0.400024 74.3 2.60002 73.6C7.40002 72.3 11.9 70.5 16.8 68.8ZM16.8 183.1C16.8 193.4 16.9 203.7 16.8 214C16.8 215.9 17.3 216.8 19.1 217.4C29.8 221.1 40.7 222.8 52 221.1C67.7 218.6 78.4 209.3 82.1 194.4C83.7 187.9 84 181.2 83.3 174.6C82 162.9 77.5 152.8 67.5 145.9C58.9 140 49.3 139 39.3 140.5C31.7 141.6 24.6 143.9 18.5 148.9C17.3 149.9 16.8 150.9 16.8 152.5C16.8 162.7 16.8 172.9 16.8 183.1Z" fill="#2A2A2A"/>
<path d="M1038.5 125.4C1044 125.4 1049.3 125.4 1054.8 125.4C1054.8 129.2 1054.8 132.8 1054.8 136.9C1056.4 135.5 1057.7 134.3 1059 133.2C1075.1 119.5 1097.7 117.5 1114.8 128.4C1122.2 133.1 1128 139.4 1131.5 147.4C1139.6 165.7 1139.9 184.3 1131.5 202.5C1121.6 223.7 1100 234.8 1076.9 231.4C1069.2 230.3 1062 228.2 1055 223.7C1055 225 1055 225.9 1055 226.7C1055 240.3 1055 254 1055 267.6C1055 269.8 1054.5 270.5 1052.2 270.4C1047.7 270.2 1043.2 270.4 1038.6 270.4C1038.5 222 1038.5 173.8 1038.5 125.4ZM1054.8 180.7C1054.8 189.2 1054.9 197.7 1054.7 206.1C1054.7 208 1055.3 209.1 1056.9 210.1C1065.9 215.8 1075.9 218.2 1086.4 217.6C1100.4 216.8 1110.7 209.9 1116.2 196.9C1121.5 184.4 1121.8 171.3 1117.7 158.4C1114.9 149.6 1109 143.2 1100.3 139.7C1085.2 133.6 1067.9 138.1 1056.4 151C1055.5 152 1054.9 153.6 1054.9 154.9C1054.8 163.6 1054.8 172.2 1054.8 180.7Z" fill="#2A2A2A"/>
<path d="M221.6 181.2C191.4 181.2 161.9 181.2 132.5 181.2C132.6 189.7 134 197.7 138.4 205C144.7 215.2 154.2 220.3 165.7 221.6C181.3 223.4 196.1 220.1 210.1 213C210.7 212.7 211.3 212.4 212 212.1C212 217.7 212 223.1 212 228.5C201.9 233 191.3 235.7 180.2 236.6C170.1 237.4 160.1 237 150.4 233.6C131.1 227 119.8 213.3 116.2 193.4C114.3 183.1 114.5 172.8 117.3 162.7C123 142.2 136.8 130.2 157.4 125.7C168.9 123.2 180.3 123.4 191.2 128.4C206.5 135.5 215.2 148 219 164C220.4 169.5 220.8 175.2 221.6 181.2ZM203.5 168.5C203.6 168.2 203.7 168.1 203.7 167.9C203.7 167.7 203.7 167.4 203.7 167.2C202.5 157.1 198.1 148.8 189.2 143.4C176.9 136 158.8 137.3 146.5 146.3C139 151.8 134.8 159.3 133.2 168.5C156.8 168.5 180.1 168.5 203.5 168.5Z" fill="#2A2A2A"/>
<path d="M1286.2 121.3C1302.8 121.7 1317.2 126.5 1328.4 138.5C1335.9 146.5 1340 156.2 1341.5 167.1C1343.3 180.5 1341.9 193.5 1335.1 205.5C1327.3 219.4 1315 227.3 1299.6 230.6C1286.8 233.3 1274.2 232.3 1262.2 227.1C1243.6 218.9 1233.7 204.3 1231.4 184.4C1230 172.4 1231.4 160.6 1237 149.7C1245.2 133.8 1258.8 125.3 1276.1 122.2C1277.4 122 1278.7 121.8 1280.1 121.7C1282.3 121.6 1284.5 121.5 1286.2 121.3ZM1283.4 135.6C1276.9 135.6 1268.2 138.5 1260.7 144.8C1244.7 158.3 1244.1 186.1 1254.2 200.9C1263.4 214.5 1276.8 219.3 1292.6 217.3C1306.4 215.5 1316.5 208.2 1322.2 195.3C1325.5 187.7 1326.2 179.6 1325.5 171.4C1323.6 150.2 1307.9 135.6 1283.4 135.6Z" fill="#2A2A2A"/>
<path d="M971 206.6C982.7 179.1 994.1 152.2 1005.5 125.4C1011 125.4 1016.3 125.4 1022 125.4C1020.8 128.4 1019.6 131.3 1018.4 134.1C999.7 177.7 980.9 221.2 962.4 264.9C960.5 269.4 958.4 271.2 953.6 270.6C950.3 270.2 947 270.5 943.3 270.5C945.1 266.2 946.8 262.3 948.5 258.4C952.8 248.4 957.2 238.5 961.4 228.4C961.8 227.4 961.8 225.9 961.4 224.9C947.5 192.4 933.6 159.9 919.7 127.4C919.4 126.8 919.2 126.2 918.9 125.3C924.8 125.3 930.4 125.2 936 125.4C936.6 125.4 937.3 126.5 937.6 127.2C945.9 146.8 954.1 166.4 962.3 186C965.1 192.6 967.9 199.2 971 206.6Z" fill="#2A2A2A"/>
<path d="M835.5 141.6C828.3 140 821.4 138.1 814.4 137.1C800.6 135 787.6 137.4 777.4 147.6C765.2 159.7 762.8 174.7 767.9 190.5C772.8 205.8 784.1 214.3 799.8 216.7C811.2 218.4 822.1 216 832.9 212.3C833.5 212.1 834.1 211.9 834.8 211.6C834.9 211.6 835.1 211.6 835.5 211.6C835.5 216.6 835.5 221.5 835.5 226.5C835.5 226.9 835 227.5 834.5 227.7C812.5 234.1 790.9 235 770.8 221.9C756.5 212.6 749.8 198.7 748.6 182C747.7 169.9 749.5 158.2 755.8 147.6C764 133.9 776.5 126.2 791.8 123C806 120 820.1 121.4 833.9 125.9C834.6 126.1 835.4 127.2 835.4 127.9C835.6 132.5 835.5 137.2 835.5 141.6Z" fill="#2A2A2A"/>
<path d="M1166.4 139.2C1160.2 139.2 1154.4 139.2 1148 139.2C1148.6 137.8 1148.8 136.6 1149.5 135.7C1159.7 123.9 1169.9 112.2 1180.2 100.6C1180.8 99.9 1181.8 99.6 1182.6 99.1C1182.8 100 1183.3 100.9 1183.3 101.8C1183.4 108.6 1183.3 115.4 1183.3 122.3C1183.3 123.2 1183.3 124.1 1183.3 125.2C1194.9 125.2 1206.3 125.2 1217.8 125.2C1217.8 130 1217.8 134.5 1217.8 139.2C1206.2 139.2 1194.8 139.2 1183.3 139.2C1183.3 159.1 1183.3 178.9 1183.3 198.7C1183.3 201.4 1183.5 204.2 1183.9 206.9C1184.9 212.4 1187.6 214.5 1193.3 214.4C1200.9 214.2 1208.1 212.6 1215.2 210C1216.1 209.7 1217.1 209.3 1218.3 208.9C1218.3 213.6 1218.3 218 1218.2 222.5C1218.2 223 1217.6 223.7 1217.1 223.9C1206.5 228.7 1195.5 231.2 1183.9 229.4C1176 228.2 1170.7 223.4 1168.6 215.8C1167.3 211 1166.6 205.8 1166.6 200.8C1166.4 181.3 1166.5 161.9 1166.5 142.4C1166.4 141.4 1166.4 140.5 1166.4 139.2Z" fill="#2A2A2A"/>
<path d="M857.4 125.4C862.9 125.4 868.2 125.4 873.8 125.4C873.8 133.4 873.8 141.4 873.8 149.3C874 149.4 874.2 149.6 874.4 149.7C881.5 131.4 895.5 123.3 914.3 122C914.3 127.8 914.3 133.9 914.3 139.9C910.7 140.4 906.9 140.6 903.3 141.4C886.8 145.1 878.2 156.1 875.1 172C874.2 176.7 873.9 181.6 873.8 186.4C873.6 199.2 873.7 212 873.7 224.8C873.7 225.8 873.7 226.8 873.7 227.9C868.1 227.9 862.8 227.9 857.3 227.9C857.4 193.9 857.4 159.7 857.4 125.4Z" fill="#2A2A2A"/>
</g>
<defs>
<clipPath id="clip0">
<rect width="1342.3" height="352.5" fill="white"/>
</clipPath>
</defs>
</svg>
