<svg height="231" viewBox="0 0 795 231" width="795" xmlns="http://www.w3.org/2000/svg" xmlns:xlink="http://www.w3.org/1999/xlink"><linearGradient id="a" x1="-.014006%" x2="100.04848%" y1="49.999993%" y2="49.999993%"><stop offset="0" stop-color="#9588ff"/><stop offset="1" stop-color="#6d3cff"/></linearGradient><linearGradient id="b" x1="-.028011%" x2="100.048592%" y1="49.991952%" y2="49.991952%"><stop offset="0" stop-color="#c188ff"/><stop offset="1" stop-color="#8d50ff"/></linearGradient><linearGradient id="c" x1=".016046%" x2="100.026402%" y1="50.150721%" y2="50.150721%"><stop offset="0" stop-color="#c188ff"/><stop offset="1" stop-color="#9281ff"/></linearGradient><g fill="none" fill-rule="evenodd"><path d="m0 24h765v237h-765z" fill="#d8d8d8" opacity="0"/><g fill-rule="nonzero"><g><path d="m144.891304 79.1057143c-.093478-.0942857-.186956-.1885714-.373913-.2828572l-99.0869562-77.78571424c-1.1217391-.84857143-2.6173913-1.03714286-3.8326087-.47142857-1.3086957.56571428-2.0565218 1.88571428-2.0565218 3.3l-1.8695652 126.81428571v1.791429.188571c0 37.148571 29.9130435 67.32 66.7434779 67.32 36.830435 0 66.744105-30.171429 66.744105-67.32.092852-21.78-10.283235-41.2028571-26.268018-53.5542857zm-98.1521736-67.6971429 70.1086956 54.9685715c-4.019565-.7542858-8.132609-1.1314286-12.432609-1.1314286-25.5195648 0-47.6739127 14.52-58.9847822 35.7342857zm57.6760866 181.1228576c-32.7173909 0-59.3586953-26.871429-59.4521735-59.871429v-1.791429c.9347826-32.2457139 27.2021739-58.1742853 59.3586955-58.1742853 32.717391 0 59.452419 26.8714286 59.452419 59.9657143.093233 33-26.548071 59.871429-59.358941 59.871429z" fill="url(#a)"/><path d="m105.163043 107.58c-.093478 0-.093478-.094286-.093478-.094286l-98.619565-80.2371426c-1.12173913-.9428571-2.6173913-1.1314285-3.92608696-.4714285-1.30869565.5657142-2.05652174 1.8857142-2.05652174 3.3l-.18695652 130.9628571v.471429 1.32c0 37.148571 29.91304352 67.32 66.74347822 67.32 36.830435 0 66.744049-30.171429 66.744049-67.32.092908-22.817143-11.31144-43.088572-28.604919-55.251429zm-97.40434735-69.7714286 72.44565215 58.9285715c-4.3-.8485715-8.6934782-1.32-13.1804348-1.32-25.8 0-48.3282608 14.8971431-59.35869561 36.5828571zm59.26521735 184.8942856c-32.7173913 0-59.45217387-26.871428-59.45217387-59.965714 0-33 26.64130437-59.965714 59.45217387-59.965714 32.7173913 0 59.452174 26.871428 59.452174 59.965714s-26.6413044 59.965714-59.452174 59.965714z" fill="url(#b)"/><path d="m4.11304348 33.7542857c-1.21521739 0-2.33695652-.5657143-3.08478261-1.6971428-1.12173913-1.6971429-.65434783-4.0542858 1.02826087-5.1857143l39.07391306-26.11714289c1.6826087-1.13142857 4.0195652-.66 5.1413043 1.03714286 1.1217392 1.69714286.6543479 4.05428572-1.0282608 5.18571429l-39.07391308 26.11714284c-.65434783.4714286-1.40217392.66-2.05652174.66z" fill="url(#c)"/></g><g fill="#d9d9d9" transform="translate(220 65)"><path d="m25.0458505 132.68771c-2.8377072-.121857-5.798793-.243715-8.6365002-.487431-2.8377072-.243715-5.7987929-.48743-8.63650014-.853004-2.8377072-.365573-5.42865725-.853004-7.77285016-1.462292v-120.39542601c2.34419291-.60928859 4.93514296-1.09671946 7.77285016-1.46229262 2.83770724-.36557315 5.67541444-.60928859 8.63650014-.85300403 2.8377072-.24371543 5.798793-.36557315 8.6365002-.48743087s5.4286573-.12185772 8.0196073-.12185772c7.0325788 0 13.6950218.48743088 19.8639505 1.58415034 6.1689287 1.09671947 11.5975859 2.92458521 16.0392146 5.48359731 4.5650072 2.5590121 8.1429859 5.9710282 10.7339359 10.1141907 2.5909501 4.1431624 3.9481144 9.3830443 3.9481144 15.4759302 0 6.8240322-1.6039215 12.4294873-4.8117644 16.8163652-3.2078429 4.3868778-7.4027144 7.6770362-12.7079931 9.7486174 7.1559573 2.193439 12.9547503 5.6054551 17.1496218 10.2360484s6.4156858 11.2109101 6.4156858 19.7409504c0 12.4294873-4.5650072 21.8125313-13.5716431 28.0272753s-23.3185505 9.383044-42.9357438 9.383044c-2.59095-.365573-5.3052787-.365573-8.1429859-.487431zm9.9936645-72.7490576c4.1948715 0 8.2663645-.2437154 11.9677217-.853004 3.8247358-.6092886 7.0325787-1.706008 9.8702859-3.1683007 2.7143287-1.5841503 4.935143-3.5338738 6.5390644-6.0928859 1.6039215-2.5590121 2.344193-5.7273128 2.344193-9.504902 0-3.5338739-.8636501-6.5803168-2.4675715-9.0174712-1.6039215-2.4371544-3.9481144-4.3868779-6.7858216-5.9710282-2.8377072-1.4622926-6.2923073-2.5590121-10.1170431-3.2901584-3.9481143-.7311463-8.0196073-1.0967195-12.3378574-1.0967195s-7.7728501 0-10.2404216.1218577c-2.4675715.1218578-4.6883858.2437155-6.662443.4874309v38.3851813zm-18.1366504 57.6387006c1.3571644.121858 2.8377072.243716 4.5650073.365573 1.4805429.121858 3.3312215.243716 5.4286572.243716 2.0974358 0 4.4416287.121858 7.1559573.121858 5.0585216 0 9.870286-.365574 14.4352932-.974862 4.5650072-.609289 8.5131216-1.827866 11.9677217-3.533874 3.4546-1.706008 6.1689287-4.021305 8.2663644-6.94589 2.0974358-3.046443 3.0844644-6.702174 3.0844644-11.3327678 0-4.0213047-.7402715-7.5551785-2.3441929-10.357906-1.4805429-2.8027276-3.7013572-4.9961665-6.662443-6.7021746-2.8377072-1.706008-6.2923073-2.9245852-10.3638002-3.5338738-3.9481144-.7311463-8.5131216-1.0967195-13.4482646-1.0967195h-22.0847648z"/><path d="m106.877936 18.6622231c-2.053023-1.9389323-3.019151-4.6049642-3.019151-7.8769124 0-3.27194817.966128-5.93798003 3.019151-7.8769123 2.053022-1.93893227 4.468343-2.9083984 7.366727-2.9083984 2.898385 0 5.313706.96946613 7.366728 2.9083984 2.053023 1.93893227 3.019151 4.60496413 3.019151 7.8769123 0 3.2719482-.966128 5.9379801-3.019151 7.8769124-2.053022 1.9389322-4.468343 2.9083984-7.366728 2.9083984-2.898384 0-5.313705-.9694662-7.366727-2.9083984z"/><path d="m106.691297 38.451977h16.050903v93.785311h-16.050903z"/><path d="m194.718651 126.487841c-4.034452 1.467944-8.680185 2.201916-14.059454 2.201916-5.501526 0-10.636283-.856301-15.526528-2.691231s-9.046953-4.52616-12.714636-8.318349c-3.667684-3.792189-6.479575-8.440678-8.557929-14.067797-2.078354-5.6271184-3.178659-12.355195-3.178659-20.1842297 0-6.8504053.978049-13.0891672 2.934147-18.8386146 1.956098-5.7494473 4.890245-10.6425939 8.680185-14.8017686 3.789939-4.1591746 8.435672-7.3397199 13.937197-9.6639646 5.501526-2.3242447 11.736588-3.5475313 18.582931-3.5475313 7.57988 0 14.18171.6116433 19.927748 1.7126013 5.623781 1.100958 10.39177 2.201916 14.303966 3.1805453v83.5504792c0 14.434782-3.667684 24.832719-10.880795 31.316138-7.213111 6.48342-18.216162 9.663965-32.886897 9.663965-5.746037 0-11.125307-.489315-16.260064-1.467944s-9.535977-2.079587-13.203661-3.425203l2.934147-14.557111c3.300915 1.345615 7.213111 2.446573 11.9811 3.547531 4.767989.97863 9.658234 1.467944 14.792991 1.467944 9.658233 0 16.626832-1.957258 20.905797-5.994104 4.278964-3.914518 6.357318-10.275608 6.357318-18.838615v-3.914517c-1.344817.978629-4.034452 2.201916-8.068904 3.66986zm1.467073-74.4981579c-2.689634-.366986-6.479574-.6116433-11.125307-.6116433-8.802441 0-15.526527 2.935888-20.294516 8.807664-4.767989 5.8717759-7.090855 13.7008106-7.090855 23.3647752 0 5.3824613.733537 10.0309506 1.956098 13.8231393 1.344817 3.7921887 3.178659 6.9727337 5.379269 9.5416357 2.322867 2.568902 4.890245 4.403832 7.946648 5.627119 2.934147 1.223287 5.99055 1.83493 9.169209 1.83493 4.278965 0 8.313417-.611643 11.858844-1.83493 3.667684-1.223287 6.479575-2.691231 8.557929-4.403832v-54.6809139c-1.467074-.6116433-3.667684-.9786293-6.357319-1.467944z"/><path d="m242.586155 41.6209707c3.062579-8.1934577 7.35019-14.9194305 12.617826-20.4224992 5.267637-5.5030687 11.515298-9.5386523 18.620482-12.35133187 7.105184-2.81267953 14.577877-4.15787409 22.540583-4.15787409 7.840203 0 15.190394 1.34519456 22.173074 4.15787409 6.982681 2.81267957 13.107839 6.84826317 18.375476 12.35133187 5.267636 5.5030687 9.432744 12.2290415 12.495323 20.4224992 3.062579 8.1934578 4.65512 17.6098197 4.65512 28.2490858s-1.592541 20.055628-4.65512 28.2490858c-3.062579 8.1934577-7.227687 14.9194307-12.495323 20.4224987-5.267637 5.503069-11.392795 9.538653-18.375476 12.351332-6.98268 2.81268-14.332871 4.157874-22.173074 4.157874-7.962706 0-15.435399-1.345194-22.540583-4.157874-7.105184-2.812679-13.230342-6.848263-18.620482-12.351332-5.267636-5.503068-9.555247-12.229041-12.617826-20.4224987-3.062579-8.1934578-4.655121-17.6098197-4.655121-28.2490858s1.470039-20.055628 4.655121-28.2490858zm16.047915 48.7938754c1.837548 6.1145208 4.532617 11.3730089 7.962706 15.7754639 3.430089 4.280164 7.7177 7.704296 12.617827 10.027814 5.02263 2.323517 10.535272 3.546422 16.782934 3.546422s11.760304-1.222905 16.660431-3.546422c4.900127-2.323518 9.065235-5.625359 12.495323-10.027814 3.430089-4.280165 6.125159-9.5386527 7.962706-15.7754639 1.837548-6.2368111 2.817573-13.0850743 2.817573-20.5447896 0-7.5820057-.980025-14.4302689-2.817573-20.5447896-1.837547-6.1145208-4.532617-11.3730086-7.962706-15.7754635-3.430088-4.2801645-7.595196-7.7042961-12.495323-10.027814s-10.535273-3.546422-16.660431-3.546422c-6.125159 0-11.760304 1.2229041-16.782934 3.546422s-9.187738 5.625359-12.617827 10.027814c-3.430089 4.2801645-6.125158 9.5386523-7.962706 15.7754635-1.837547 6.2368111-2.817573 13.0850743-2.817573 20.5447896 0 7.5820057.980026 14.4302689 2.817573 20.5447896z"/><path d="m448.770536 117.303427c-3.330693-5.508391-7.031463-11.2616-10.855592-17.137218-3.947488-5.9980259-7.894976-11.9960521-12.089181-18.1164871-4.194206-6.1204349-8.388412-11.9960524-12.459259-17.7492612s-8.141694-11.0167828-11.965822-16.1579481c-3.824129-5.0187566-7.524899-9.4254697-10.732233-13.3425481v97.4373235h-16.776823v-124.73446314h13.569489c5.551155 5.99802624 11.472387 12.97532194 17.763695 20.93188734 6.291309 7.9565654 12.582618 16.1579482 18.750568 24.726557 6.167949 8.4462002 11.965822 16.7699916 17.516977 24.9713744 5.427796 8.2013828 10.115438 15.423496 13.816208 21.7887483v-92.41856704h16.776823v124.73446314h-14.309644c-2.713897-4.406713-5.674513-9.42547-9.005206-14.933861z"/><path d="m495.689655 7.50282486h74.863036v14.93386114h-57.691481v37.0898355h51.26759v14.5666351h-51.26759v43.2102704h62.13879v14.933861h-79.310345z"/></g></g></g></svg>